<?xml version="1.0" encoding="UTF-8" standalone="no"?>
<svg
   height="595.11224"
   version="1.1"
   width="563.00385"
   id="svg31"
   sodipodi:docname="ecochita_logo_vector.svg"
   inkscape:export-filename="ecochita_logo_vector.svg"
   inkscape:export-xdpi="96"
   inkscape:export-ydpi="96"
   inkscape:version="1.4.3 (0d15f75, 2025-12-25)"
   xmlns:inkscape="http://www.inkscape.org/namespaces/inkscape"
   xmlns:sodipodi="http://sodipodi.sourceforge.net/DTD/sodipodi-0.dtd"
   xmlns="http://www.w3.org/2000/svg"
   xmlns:svg="http://www.w3.org/2000/svg">
  <sodipodi:namedview
     id="namedview31"
     pagecolor="#ffffff"
     bordercolor="#000000"
     borderopacity="0.25"
     inkscape:showpageshadow="2"
     inkscape:pageopacity="0.0"
     inkscape:pagecheckerboard="0"
     inkscape:deskcolor="#d1d1d1"
     inkscape:zoom="0.62404288"
     inkscape:cx="80.923926"
     inkscape:cy="324.49693"
     inkscape:window-width="1920"
     inkscape:window-height="1017"
     inkscape:window-x="1912"
     inkscape:window-y="-8"
     inkscape:window-maximized="1"
     inkscape:current-layer="svg31" />
  <defs
     id="defs1" />
  <path
     d="m 140.00383,497 c -40.840765,36.57123 -90.067485,60.43001 -140.00000467,82 -0.17381,5.89691 5.61639997,10.48853 8.99999997,15 62.5624797,9.82667 105.5332047,-47.52026 144.2832847,-90.8157 0,0 -7.59578,-6.1843 -13.28328,-6.1843 z"
     fill="#287631"
     stroke="none"
     id="path28"
     sodipodi:nodetypes="ccccc" />
  <path
     d="m 242.21334,316.20491 c -14.42911,13.51851 -39.95455,35.92205 -38.64296,60.34458 22.95299,-13.14782 34.7706,-39.4051 38.64296,-60.34458 z"
     fill="#438e32"
     stroke="none"
     id="path30"
     sodipodi:nodetypes="ccc" />
  <path
     d="m 191.60988,405.12119 c -11.61689,7.90083 -30.62789,35.55554 -32.25975,58.87017 -0.13639,1.94861 -0.21056,2.66961 1.14253,4.60346 2.65716,0.47506 3.41618,0.58223 4.6582,-0.58956 17.14844,-16.17881 26.2821,-50.6251 26.45902,-62.88407 z"
     fill="#438e32"
     stroke="none"
     id="path30-4"
     sodipodi:nodetypes="cscsc" />
  <path
     d="m 563.00383,0 c -147.12068,89.81529 -236.70465,68.58877 -379,137 -49.94916,28.30051 -81.09699,70.04806 -116.000005,114 -49.26569,81.45071 -38.84843,162.76331 -18,249 31.19146,-14.33177 44.71623,-29.98862 68.000005,-54 42.99415,-140.92857 150.21904,-214.60157 282,-254 -173.69504,92.70438 -79.34684,162.46195 -220,386 350.08787,37.04104 381.27415,-439.93172 383,-578 z"
     fill="#4b922a"
     stroke="none"
     id="path31"
     sodipodi:nodetypes="cccccccc" />
</svg>
